<svg width="26" height="26" viewBox="0 0 26 26" fill="none" xmlns="http://www.w3.org/2000/svg">
<path fill-rule="evenodd" clip-rule="evenodd" d="M6.3205 19.6796C5.98203 19.341 5.98203 18.7923 6.3205 18.4539L17.841 6.93332H10.4C9.92135 6.93332 9.53332 6.54529 9.53332 6.06665C9.53332 5.58801 9.92135 5.19998 10.4 5.19998H19.9333C20.1632 5.19998 20.3836 5.29129 20.5462 5.45383C20.7086 5.61636 20.8 5.83679 20.8 6.06665V15.6C20.8 16.0786 20.4119 16.4667 19.9333 16.4667C19.4547 16.4667 19.0667 16.0786 19.0667 15.6V8.15897L7.54614 19.6796C7.20769 20.0179 6.65895 20.0179 6.3205 19.6796Z" fill="black"/>
</svg>
